<svg width="1025" height="374" viewBox="0 0 1025 374" fill="none" xmlns="http://www.w3.org/2000/svg">
<path d="M98.3142 77.0044L32.4043 114.561L32.4031 266.161L165.826 345.815L298.377 269.353V188.084" stroke="url(#paint0_radial_536_62)" stroke-width="32.1654" stroke-linecap="round" stroke-linejoin="round"/>
<path d="M302.704 104.169C270.169 54.8281 221.906 31.345 169.334 29.8385" stroke="url(#paint1_radial_536_62)" stroke-width="32.1654" stroke-linecap="round" stroke-linejoin="round"/>
<path d="M485.384 272.489C458.813 272.489 438.885 265.107 425.6 250.343C412.315 235.578 405.672 214.287 405.672 186.47C405.672 156.726 412.422 135.114 425.921 121.634C439.635 108.153 459.349 101.413 485.063 101.413C503.062 101.413 518.062 104.622 530.062 111.042C542.062 117.247 550.954 126.662 556.74 139.287C562.74 151.912 565.74 167.639 565.74 186.47C565.74 214.287 558.775 235.578 544.847 250.343C531.133 265.107 511.312 272.489 485.384 272.489ZM485.384 239.109C494.813 239.109 502.42 236.969 508.205 232.689C514.205 228.41 518.598 222.418 521.383 214.715C524.169 206.798 525.562 197.383 525.562 186.47C525.562 174.273 524.062 164.323 521.062 156.619C518.276 148.916 513.884 143.246 507.884 139.608C502.098 135.97 494.598 134.152 485.384 134.152C475.956 134.152 468.349 136.077 462.563 139.929C456.778 143.781 452.492 149.558 449.707 157.261C447.135 164.965 445.85 174.701 445.85 186.47C445.85 203.588 448.957 216.641 455.171 225.628C461.385 234.615 471.456 239.109 485.384 239.109Z" fill="white"/>
<path d="M592.412 272.587V121.634C595.412 119.708 600.662 117.14 608.162 113.93C615.876 110.721 624.769 107.939 634.84 105.585C644.911 103.017 655.09 101.734 665.375 101.734C673.089 101.734 679.196 102.375 683.696 103.659C688.41 104.729 692.053 106.12 694.624 107.832V138.645C690.339 138.003 685.41 137.468 679.839 137.04C674.482 136.612 668.911 136.505 663.125 136.719C657.554 136.719 652.09 136.933 646.733 137.361C641.59 137.789 637.09 138.324 633.233 138.966V272.587H592.412Z" fill="white"/>
<path d="M789.471 272.489C774.472 272.489 761.4 270.136 750.258 265.428C739.329 260.507 730.758 253.231 724.544 243.602C718.544 233.973 715.544 221.669 715.544 206.691V102.222H756.365V202.518C756.365 214.501 759.043 223.381 764.4 229.159C769.757 234.936 778.114 237.825 789.471 237.825C801.257 237.825 809.721 234.936 814.863 229.159C820.22 223.381 822.899 214.501 822.899 202.518V102.222H861.469V206.691C861.469 228.945 855.041 245.528 842.184 256.441C829.542 267.14 811.971 272.489 789.471 272.489Z" fill="white"/>
<path d="M944.316 272.489C932.745 272.489 922.888 271.206 914.745 268.638C906.602 266.284 898.781 263.395 891.281 259.972V223.381C896.21 226.591 901.352 229.693 906.709 232.689C912.281 235.471 918.173 237.718 924.388 239.43C930.816 241.141 937.673 241.997 944.959 241.997C953.53 241.997 959.851 240.392 963.922 237.183C968.208 233.759 970.351 229.693 970.351 224.986C970.351 220.492 968.744 217.069 965.53 214.715C962.315 212.147 958.137 210.007 952.994 208.295C947.851 206.584 942.387 204.872 936.602 203.16C931.245 201.876 925.78 200.164 920.209 198.024C914.852 195.885 909.924 192.996 905.424 189.358C900.924 185.721 897.281 181.12 894.495 175.557C891.924 169.779 890.638 162.825 890.638 154.694C890.638 145.064 892.567 136.933 896.424 130.3C900.281 123.666 905.317 118.317 911.531 114.251C917.745 110.186 924.602 107.297 932.102 105.585C939.602 103.659 946.887 102.696 953.958 102.696C966.172 103.124 976.029 104.622 983.529 107.19C991.029 109.544 998.1 112.647 1004.74 116.498L1005.06 149.558C997.564 145.492 990.279 141.855 983.208 138.645C976.136 135.221 968.101 133.51 959.101 133.51C950.744 133.51 944.209 135.007 939.494 138.003C934.995 140.785 932.745 144.743 932.745 149.879C932.745 154.373 934.137 158.01 936.923 160.792C939.709 163.574 943.351 165.714 947.851 167.211C952.351 168.709 957.28 170.207 962.637 171.705C967.994 173.203 973.565 174.915 979.351 176.84C985.136 178.552 990.493 181.12 995.422 184.544C1000.35 187.967 1004.31 192.568 1007.31 198.345C1010.53 203.909 1012.14 211.398 1012.14 220.813C1011.92 233.224 1008.6 243.281 1002.17 250.984C995.743 258.474 987.279 263.93 976.779 267.354C966.494 270.778 955.673 272.489 944.316 272.489Z" fill="white"/>
<defs>
<radialGradient id="paint0_radial_536_62" cx="0" cy="0" r="1" gradientUnits="userSpaceOnUse" gradientTransform="translate(170.446 43.764) rotate(92.2803) scale(297.479 1515.6)">
<stop stop-color="#8000FF"/>
<stop offset="1" stop-color="#B4C9FF"/>
</radialGradient>
<radialGradient id="paint1_radial_536_62" cx="0" cy="0" r="1" gradientUnits="userSpaceOnUse" gradientTransform="translate(294.87 260.345) rotate(-147.72) scale(297.479 1515.6)">
<stop stop-color="#8000FF"/>
<stop offset="1" stop-color="#B4C9FF"/>
</radialGradient>
</defs>
</svg>
